<?xml version="1.0" encoding="UTF-8" standalone="no"?>
<svg
   xmlns:dc="http://purl.org/dc/elements/1.1/"
   xmlns:cc="http://creativecommons.org/ns#"
   xmlns:rdf="http://www.w3.org/1999/02/22-rdf-syntax-ns#"
   xmlns:svg="http://www.w3.org/2000/svg"
   xmlns="http://www.w3.org/2000/svg"
   xmlns:sodipodi="http://sodipodi.sourceforge.net/DTD/sodipodi-0.dtd"
   xmlns:inkscape="http://www.inkscape.org/namespaces/inkscape"
   sodipodi:docname="dogskull.svg"
   inkscape:version="1.0 (4035a4fb49, 2020-05-01)"
   id="svg8"
   version="1.1"
   viewBox="0 0 273.47333 209.97333"
   height="209.97333mm"
   width="273.47333mm">
  <defs
     id="defs2" />
  <sodipodi:namedview
     inkscape:window-maximized="1"
     inkscape:window-y="-8"
     inkscape:window-x="1358"
     inkscape:window-height="1027"
     inkscape:window-width="1680"
     showgrid="false"
     inkscape:document-rotation="0"
     inkscape:current-layer="layer1"
     inkscape:document-units="mm"
     inkscape:cy="311.10799"
     inkscape:cx="711.67877"
     inkscape:zoom="2.8"
     inkscape:pageshadow="2"
     inkscape:pageopacity="0.0"
     borderopacity="1.0"
     bordercolor="#666666"
     pagecolor="#ffffff"
     id="base" />
  <metadata
     id="metadata5">
    <rdf:RDF>
      <cc:Work
         rdf:about="">
        <dc:format>image/svg+xml</dc:format>
        <dc:type
           rdf:resource="http://purl.org/dc/dcmitype/StillImage" />
        <dc:title></dc:title>
      </cc:Work>
    </rdf:RDF>
  </metadata>
  <g
     transform="translate(126.15334,-78.709763)"
     id="layer1"
     inkscape:groupmode="layer"
     inkscape:label="Layer 1">
    <g
       transform="translate(20.505208,-3.0238095)"
       id="g13784">
      <path
         style="fill:none;stroke:#000000;stroke-width:2;stroke-linecap:butt;stroke-linejoin:miter;stroke-miterlimit:4;stroke-dasharray:none;stroke-opacity:1"
         d="m 7.6484648,147.76553 c 1.2695305,-3.39655 1.8708875,-4.58813 4.4433572,-7.78423 1.692706,-1.72612 3.786319,-3.25177 8.018086,-4.91107 3.441094,-1.19158 5.111528,-1.28068 9.989197,-1.40318 3.285188,-0.0111 4.666082,-0.0891 8.051497,0.50114 0,0 4.878814,1.02753 7.216274,1.87089 2.8351,1.02291 4.513228,1.27376 8.18513,3.842 4.41302,3.0866 5.001231,4.5457 7.750816,9.45465 1.506519,2.68965 2.349745,5.40107 2.939966,8.11831 0.32295,1.15817 0.378631,2.58361 0.334086,3.77518 0,1.1359 -0.300681,2.73952 -0.701582,4.07587 -0.400905,1.24726 -0.785103,2.92883 -2.38872,4.2429 -1.505567,1.45223 -2.540671,2.14071 -3.825297,3.90882 -0.712718,0.90203 -0.757263,3.05689 -0.935442,4.81085 l -0.400905,5.47903 c -0.04454,1.55907 -0.322951,3.46893 -0.584653,4.87767 -0.339654,1.33078 -0.846352,1.90986 -1.904293,2.77292 -0.896467,0.75169 -1.341917,1.03567 -2.856444,1.1693 -7.283095,0.57907 -11.626226,0.35637 -16.169807,0 -1.447709,-0.0668 -2.895419,-0.0668 -4.343128,-0.80181 -1.71498,-0.86863 -2.895421,-1.26953 -3.407687,-3.40768 -0.712719,-3.29633 -2.227247,-7.86218 -2.939965,-11.15851 -4.187223,-2.60588 -6.503558,-1.9377 -10.42351,-3.27405 -1.536802,-0.71271 -2.138158,-1.62589 -2.939968,-2.73951 -1.3363476,-2.47224 -3.140417,-6.48128 -3.4076867,-8.55262 -0.7127184,-1.95998 -0.8240804,-4.38768 -0.9354423,-6.68174 0.022272,-2.96224 -0.022273,-4.45449 1.2361208,-8.18513 z"
         id="path136"
         sodipodi:nodetypes="cccccassccccccccccccccccccc" />
      <path
         style="fill:none;stroke:#000000;stroke-width:0.75;stroke-linecap:butt;stroke-linejoin:miter;stroke-miterlimit:4;stroke-dasharray:none;stroke-opacity:1"
         d="m 24.11895,177.19858 c 0,0 1.950243,-0.59851 5.359406,1.24965 0.787967,-0.0863 1.320232,-1.43322 0.720094,-2.18879 -0.287324,-0.36174 1.34752,1.844 1.426868,-0.26673 0.0157,-0.41772 -0.465894,-0.72967 -0.351577,-1.06438 0.152166,-0.34094 0.823355,-0.18672 0.992188,-0.51972 0.190865,-0.37646 0.148183,-0.99815 -0.188987,-1.25205 -0.678813,-0.51117 -1.68019,0.3922 -2.527718,0.33073 -0.636503,-0.0462 -1.225428,-0.35747 -1.842632,-0.51972 -0.642797,-0.16898 -2.342605,0.0542 -1.937128,-0.47246 1.103602,-1.43332 2.457082,-4.3462 2.622208,-6.75633 0.14661,-2.13989 -0.272322,-4.4933 -1.488281,-6.26023 -1.15647,-1.68049 -3.075132,-2.95925 -5.055431,-3.44903 -1.077151,-0.26641 -2.313583,-0.11576 -3.307291,0.37797 -1.296842,0.64435 -3.000185,3.14193 -3.000185,3.14193"
         id="path961"
         sodipodi:nodetypes="ccsscssssssssac" />
      <path
         style="fill:none;stroke:#000000;stroke-width:2;stroke-linecap:butt;stroke-linejoin:miter;stroke-miterlimit:4;stroke-dasharray:none;stroke-opacity:1"
         d="m 8.2171933,165.64429 -1.8426324,0.14174 c 0,0 -0.9661326,0.16921 -1.3229167,0.47247 -0.5209952,0.44283 -0.878976,1.12105 -0.9921875,1.79538 -0.1217491,0.72518 0.066166,1.50742 0.3779758,2.17337 0.2890209,0.61728 0.8066218,1.11418 1.3229167,1.55915 0.4071858,0.35094 0.7464474,0.56722 1.2756693,0.66146 0.5382303,0.0958 1.1882866,0.0483 1.7008932,-0.14174 0.7216699,-0.26754 2.0185593,-1.1211 2.0185593,-1.1211"
         id="path963"
         sodipodi:nodetypes="ccssssssc" />
      <path
         style="fill:none;stroke:#000000;stroke-width:1.5;stroke-linecap:butt;stroke-linejoin:miter;stroke-miterlimit:4;stroke-dasharray:none;stroke-opacity:1"
         d="m 6.6580434,168.43186 c 0,0 0.3492802,0.91207 0.8504464,0.94494 0.6903969,0.0453 1.700891,-1.18117 1.700891,-1.18117"
         id="path965"
         sodipodi:nodetypes="csc" />
      <path
         style="fill:none;stroke:#000000;stroke-width:0.75;stroke-linecap:butt;stroke-linejoin:miter;stroke-miterlimit:4;stroke-dasharray:none;stroke-opacity:1"
         d="m 29.932063,147.39803 c -1.191577,2.22725 -1.83191,3.90325 -2.772921,6.13049 -0.07239,0.54011 0.07239,0.84636 0.517833,1.01898 0.389769,0.17817 4.989033,-1.63147 7.533662,-2.72282 l 0.0167,-0.7517 c -1.631457,-1.45884 -4.432217,-3.45223 -5.295274,-3.67495 z"
         id="path967"
         sodipodi:nodetypes="cccccc" />
      <path
         style="fill:none;stroke:#000000;stroke-width:0.75;stroke-linecap:butt;stroke-linejoin:miter;stroke-miterlimit:4;stroke-dasharray:none;stroke-opacity:1"
         d="m 61.6035,149.66982 c 0.918739,-1.15817 1.770661,-1.7985 3.374278,-2.37201 0.420261,-0.0635 0.790408,0.006 1.177261,0.24368 1.985165,1.68386 2.299897,2.03138 4.335175,4.66739 0.194883,0.30068 0.327126,0.39255 0.133633,0.80181 -0.261701,0.30903 -0.552635,0.30903 -0.85192,0.32574 l -6.631627,0.0751"
         id="path969"
         sodipodi:nodetypes="ccccccc" />
      <path
         style="fill:none;stroke:#000000;stroke-width:0.75;stroke-linecap:butt;stroke-linejoin:miter;stroke-miterlimit:4;stroke-dasharray:none;stroke-opacity:1"
         d="m 35.266116,162.00036 c -0.02472,-1.02653 0.262108,-1.1039 0.37207,-2.04934 0.05676,-0.48803 0.289048,-1.28413 0.549246,-1.70089 0.315868,-0.50593 0.725884,-0.96742 1.204799,-1.32292 0.455336,-0.338 0.982434,-0.60719 1.535528,-0.73233 0.783399,-0.17725 1.286004,-0.16316 2.061153,0.0472 0.289195,0.0785 0.484741,0.23758 0.755953,0.33073 0.565801,0.19432 0.712031,0.32312 0.992186,0.47246 0.433397,0.23104 0.553411,0.53306 0.820916,0.94495 0.264809,0.40774 0.43741,0.87002 0.614212,1.32292 0.150331,0.38509 0.303501,0.77454 0.377975,1.18117 0.08097,0.44211 0.11927,0.89969 0.07087,1.34654 -0.03518,0.32477 -0.102698,0.65856 -0.259858,0.94494 -0.214571,0.391 -0.611211,0.65036 -0.897694,0.99219 -0.313638,0.37423 -0.554242,0.68657 -0.968565,0.94494 -0.39575,0.24679 -0.833204,0.47921 -1.299293,0.49609 -1.23314,0.0446 -1.713572,0.0731 -3.023808,-0.0472 -0.334998,-0.0308 -0.924036,-0.23993 -1.2048,-0.42523 -0.618238,-0.40803 -1.142173,-0.96315 -1.464656,-1.63002 -0.219565,-0.24674 -0.236234,-1.11625 -0.236234,-1.11625 z"
         id="path2906"
         sodipodi:nodetypes="cssssssssssssssssscc" />
      <path
         style="fill:none;stroke:#000000;stroke-width:0.75;stroke-linecap:butt;stroke-linejoin:miter;stroke-miterlimit:4;stroke-dasharray:none;stroke-opacity:1"
         d="m 53.977616,154.5274 c -0.895614,0.69113 -1.574236,0.89783 -2.222289,1.66748 -0.31498,0.38979 -0.405537,1.24023 -0.448847,1.77176 l -0.02363,1.77177 c 0.03544,0.62996 0.08268,0.941 0.283483,1.46466 0.236235,0.51971 0.437035,0.77957 0.850447,1.13392 0.531528,0.35042 1.145739,0.62996 1.771761,0.8032 0.606338,0.13781 1.023687,0.19293 1.748142,0.16537 0.850446,-0.15749 1.370163,-0.39767 2.126115,-0.82683 0.464596,-0.27167 0.893757,-0.60239 1.181177,-1.06305 0.492156,-0.77958 0.759888,-1.68909 0.767763,-2.31511 0.01181,-0.46066 -0.01181,-0.95675 -0.106306,-1.33473 -0.421286,-1.17724 -0.913442,-1.61033 -1.157551,-1.83082 -0.24411,-0.25986 -0.842573,-0.6024 -1.299295,-0.77957 -0.559089,-0.25592 -1.070932,-0.24018 -1.476468,-0.41341 -0.574277,-0.38259 -1.78639,-0.36358 -1.994502,-0.21464 z"
         id="path2908"
         sodipodi:nodetypes="cccccccccccccccc" />
      <path
         style="fill:none;stroke:#000000;stroke-width:0.75;stroke-linecap:butt;stroke-linejoin:miter;stroke-miterlimit:4;stroke-dasharray:none;stroke-opacity:1"
         d="m 48.440477,159.49198 1.135896,-2.53906"
         id="path2910" />
      <path
         style="fill:none;stroke:#000000;stroke-width:0.75;stroke-linecap:butt;stroke-linejoin:round;stroke-miterlimit:4;stroke-dasharray:none;stroke-opacity:1"
         d="M 47.10413,157.48745 45.433693,155.7502"
         id="path2912" />
      <path
         style="fill:none;stroke:#000000;stroke-width:0.75;stroke-linecap:butt;stroke-linejoin:miter;stroke-miterlimit:4;stroke-dasharray:none;stroke-opacity:1"
         d="m 40.689661,156.15111 c 1.531783,-1.02353 1.894202,-1.7872 1.78415,-2.65718"
         id="path2914"
         sodipodi:nodetypes="cc" />
      <path
         style="fill:none;stroke:#000000;stroke-width:0.75;stroke-linecap:butt;stroke-linejoin:miter;stroke-miterlimit:4;stroke-dasharray:none;stroke-opacity:1"
         d="m 52.968543,151.93351 c 0.118196,1.31339 0.588083,1.69529 1.28074,2.47577"
         id="path2916"
         sodipodi:nodetypes="cc" />
      <path
         style="fill:none;stroke:#000000;stroke-width:0.75;stroke-linecap:butt;stroke-linejoin:miter;stroke-miterlimit:4;stroke-dasharray:none;stroke-opacity:1"
         d="m 42.270486,168.80984 c -1.211508,-10.19663 14.151462,-9.167 13.784321,-0.86226"
         id="path2920"
         sodipodi:nodetypes="cc" />
      <path
         style="fill:none;stroke:#000000;stroke-width:0.75;stroke-linecap:butt;stroke-linejoin:miter;stroke-miterlimit:4;stroke-dasharray:none;stroke-opacity:1"
         d="m 47.98946,169.59811 c 2.51122,-3.20723 2.717241,-3.40769 3.708364,-7.7007"
         id="path2922"
         sodipodi:nodetypes="cc" />
      <path
         style="fill:none;stroke:#000000;stroke-width:0.75;stroke-linecap:butt;stroke-linejoin:miter;stroke-miterlimit:4;stroke-dasharray:none;stroke-opacity:1"
         d="m 52.031912,169.1805 c -2.516788,-2.42213 -3.814159,-2.7061 -6.364356,-7.03253"
         id="path2924"
         sodipodi:nodetypes="cc" />
      <ellipse
         style="fill:none;stroke:#000000;stroke-width:0.264583;stroke-opacity:1"
         id="path2926"
         cx="45.600742"
         cy="165.33014"
         rx="0.16704345"
         ry="0.17539562" />
      <ellipse
         style="fill:none;stroke:#000000;stroke-width:0.264583;stroke-opacity:1"
         id="path2928"
         cx="44.991024"
         cy="167.10916"
         rx="0.17539562"
         ry="0.16704345" />
      <ellipse
         style="fill:none;stroke:#000000;stroke-width:0.264583;stroke-opacity:1"
         id="path2930"
         cx="46.853573"
         cy="166.78342"
         rx="0.20045215"
         ry="0.19209997" />
      <ellipse
         style="fill:none;stroke:#000000;stroke-width:0.264583;stroke-opacity:1"
         id="path2932"
         cx="52.315884"
         cy="165.76447"
         rx="0.21715648"
         ry="0.17539562" />
      <ellipse
         style="fill:none;stroke:#000000;stroke-width:0.264583;stroke-opacity:1"
         id="path2934"
         cx="53.326496"
         cy="164.86243"
         rx="0.12528259"
         ry="0.24221301" />
      <ellipse
         style="fill:none;stroke:#000000;stroke-width:0.264583;stroke-opacity:1"
         id="path2936"
         cx="53.627174"
         cy="166.96718"
         rx="0.17539562"
         ry="0.20880431" />
      <path
         style="fill:none;stroke:#000000;stroke-width:0.75;stroke-linecap:butt;stroke-linejoin:miter;stroke-miterlimit:4;stroke-dasharray:none;stroke-opacity:1"
         d="m 37.883332,166.97552 c 1.937702,0.0668 2.00452,0.0668 2.00452,0.0668"
         id="path2938" />
      <path
         style="fill:none;stroke:#000000;stroke-width:0.75;stroke-linecap:butt;stroke-linejoin:miter;stroke-miterlimit:4;stroke-dasharray:none;stroke-opacity:1"
         d="m 57.995361,165.57236 1.469983,-0.93545"
         id="path2940" />
      <path
         style="fill:none;stroke:#000000;stroke-width:0.75;stroke-linecap:butt;stroke-linejoin:miter;stroke-miterlimit:4;stroke-dasharray:none;stroke-opacity:1"
         d="m 56.224701,185.28349 c -6.960144,3.36314 -23.475173,3.95336 -22.784726,-1.60362 0.723856,-3.64155 5.323119,-3.74177 8.185131,-3.54132"
         id="path2942"
         sodipodi:nodetypes="ccc" />
      <path
         style="fill:none;stroke:#000000;stroke-width:0.75;stroke-linecap:butt;stroke-linejoin:miter;stroke-miterlimit:4;stroke-dasharray:none;stroke-opacity:1"
         d="m 40.255348,174.32543 c 2.483379,4.67722 0.657038,7.63389 1.436574,13.4303"
         id="path2944"
         sodipodi:nodetypes="cc" />
      <path
         style="fill:none;stroke:#000000;stroke-width:0.75;stroke-linecap:butt;stroke-linejoin:miter;stroke-miterlimit:4;stroke-dasharray:none;stroke-opacity:1"
         d="m 45.199834,173.99135 c 0.537639,0.85911 1.661587,1.96495 1.90897,3.18176 0.44436,2.18568 0.124487,4.56296 0.435594,6.92497 0.145296,1.10313 0.515558,2.2184 0.461765,3.32356"
         id="path2946"
         sodipodi:nodetypes="cssc" />
      <path
         style="fill:none;stroke:#000000;stroke-width:0.75;stroke-linecap:butt;stroke-linejoin:miter;stroke-miterlimit:4;stroke-dasharray:none;stroke-opacity:1"
         d="m 49.208878,173.85771 c 0.676732,1.22576 1.002673,2.03392 0.977823,3.17616 0.0081,1.00705 -0.184162,1.09536 -0.125903,2.26946 l 0.517837,7.684"
         id="path2948"
         sodipodi:nodetypes="cccc" />
      <path
         style="fill:none;stroke:#000000;stroke-width:0.75;stroke-linecap:butt;stroke-linejoin:miter;stroke-miterlimit:4;stroke-dasharray:none;stroke-opacity:1"
         d="m 33.439972,183.67987 c 0.902036,0.0613 1.820776,0.20602 2.63929,-0.68488 0.239428,-0.7517 0.06125,-1.52009 0.05011,-2.23838"
         id="path2950"
         sodipodi:nodetypes="ccc" />
      <path
         style="fill:none;stroke:#000000;stroke-width:0.75;stroke-linecap:butt;stroke-linejoin:miter;stroke-miterlimit:4;stroke-dasharray:none;stroke-opacity:1"
         d="m 36.246302,183.31237 c 0.773969,0.45102 2.299633,0.41761 2.522358,-0.36749 l 0.217155,-2.87315"
         id="path2952"
         sodipodi:nodetypes="ccc" />
      <path
         style="fill:none;stroke:#000000;stroke-width:0.75;stroke-linecap:butt;stroke-linejoin:miter;stroke-miterlimit:4;stroke-dasharray:none;stroke-opacity:1"
         d="m 38.76866,182.94488 c 1.224986,0.6292 2.333041,0.35636 2.823035,-0.26727 1.368856,1.0721 2.772919,-0.11694 2.238383,-2.57247"
         id="path2954"
         sodipodi:nodetypes="ccc" />
      <path
         style="fill:none;stroke:#000000;stroke-width:0.75;stroke-linecap:butt;stroke-linejoin:miter;stroke-miterlimit:4;stroke-dasharray:none;stroke-opacity:1"
         d="m 43.379058,182.79453 c 0.918739,0.32295 1.637027,0.42874 2.188271,-0.40091 l 0.100227,-2.55576"
         id="path2956"
         sodipodi:nodetypes="ccc" />
      <path
         style="fill:none;stroke:#000000;stroke-width:0.75;stroke-linecap:butt;stroke-linejoin:miter;stroke-miterlimit:4;stroke-dasharray:none;stroke-opacity:1"
         d="m 45.567329,182.39362 c 0.974421,1.33635 3.803024,-0.45101 6.68174,-0.35078 l -0.03341,-2.87314"
         id="path2958"
         sodipodi:nodetypes="ccc" />
      <path
         style="fill:none;stroke:#000000;stroke-width:0.75;stroke-linecap:butt;stroke-linejoin:miter;stroke-miterlimit:4;stroke-dasharray:none;stroke-opacity:1"
         d="m 52.249066,182.04284 h 1.837479 l -0.334087,-3.14041"
         id="path2960" />
      <path
         style="fill:none;stroke:#000000;stroke-width:0.75;stroke-linecap:butt;stroke-linejoin:miter;stroke-miterlimit:4;stroke-dasharray:none;stroke-opacity:1"
         d="m 54.086542,182.04284 c 1.035671,-0.039 1.453281,-0.245 2.40543,-0.26727"
         id="path2962"
         sodipodi:nodetypes="cc" />
      <path
         style="fill:none;stroke:#000000;stroke-width:0.75;stroke-linecap:butt;stroke-linejoin:miter;stroke-miterlimit:4;stroke-dasharray:none;stroke-opacity:1"
         d="m 36.079262,182.99499 0.434311,3.95893"
         id="path2964"
         sodipodi:nodetypes="cc" />
      <path
         style="fill:none;stroke:#000000;stroke-width:0.75;stroke-linecap:butt;stroke-linejoin:miter;stroke-miterlimit:4;stroke-dasharray:none;stroke-opacity:1"
         d="m 38.76866,182.94488 0.317383,4.6438"
         id="path2966"
         sodipodi:nodetypes="cc" />
      <path
         style="fill:none;stroke:#000000;stroke-width:0.75;stroke-linecap:butt;stroke-linejoin:miter;stroke-miterlimit:4;stroke-dasharray:none;stroke-opacity:1"
         d="m 43.379058,182.79453 0.751698,5.06143"
         id="path2968"
         sodipodi:nodetypes="cc" />
      <path
         style="fill:none;stroke:#000000;stroke-width:0.75;stroke-linecap:butt;stroke-linejoin:miter;stroke-miterlimit:4;stroke-dasharray:none;stroke-opacity:1"
         d="m 45.567329,182.39362 0.167045,5.39552"
         id="path2970"
         sodipodi:nodetypes="cc" />
      <path
         style="fill:none;stroke:#000000;stroke-width:0.75;stroke-linecap:butt;stroke-linejoin:miter;stroke-miterlimit:4;stroke-dasharray:none;stroke-opacity:1"
         d="m 50.060798,179.30333 -2.722807,0.13363"
         id="path2972"
         sodipodi:nodetypes="cc" />
      <path
         style="fill:none;stroke:#000000;stroke-width:0.75;stroke-linecap:butt;stroke-linejoin:miter;stroke-miterlimit:4;stroke-dasharray:none;stroke-opacity:1"
         d="m 52.249066,182.04284 0.367496,4.51018"
         id="path2974" />
      <path
         style="fill:none;stroke:#000000;stroke-width:0.75;stroke-linecap:butt;stroke-linejoin:miter;stroke-miterlimit:4;stroke-dasharray:none;stroke-opacity:1"
         d="m 54.086539,182.04284 0.200459,3.97564"
         id="path2976" />
      <path
         style="fill:none;stroke:#000000;stroke-width:0.264583px;stroke-linecap:butt;stroke-linejoin:miter;stroke-opacity:1"
         d="m 39.801117,158.71008 c 1.128388,0.34635 1.394519,0.68088 1.648837,1.22802 0.03534,0.13804 0.129731,0.8017 0.123726,0.92793 -0.0052,0.13816 -0.09306,0.38854 -0.175024,0.55624 l -0.15691,0.30809 c -0.06794,0.13678 -0.401639,0.54523 -0.522729,0.58751 -0.146624,0.0444 -0.535388,0.11248 -0.6702,0.13329 -0.271651,0.0276 -0.879936,-0.0215 -1.098434,-0.11204 -0.147357,-0.0477 -0.389208,-0.24893 -0.554283,-0.45017 -0.169571,-0.13925 -0.410013,-0.46749 -0.449655,-0.67761 -0.03943,-0.2113 -0.0198,-0.73561 0.10613,-0.89966 0.128463,-0.13881 0.138809,-0.21856 0.302708,-0.45186 0.186845,-0.17492 0.03706,-0.49158 0.271147,-0.64287 0.486056,-0.1414 0.913054,-0.51903 1.174687,-0.50687 z"
         id="path2978"
         sodipodi:nodetypes="cccccccccccccc" />
      <path
         style="fill:none;stroke:#000000;stroke-width:0.264583px;stroke-linecap:butt;stroke-linejoin:miter;stroke-opacity:1"
         d="m 55.186659,156.9671 c 0.362422,-0.0823 0.769856,-0.11142 1.114645,0.0273 0.364663,0.14675 0.677774,0.45303 0.870305,0.79574 0.11184,0.19907 0.120751,0.44414 0.131785,0.67222 0.01828,0.37793 0.07831,0.80153 -0.109837,1.12981 -0.173733,0.30313 -0.848883,0.61485 -0.848883,0.61485 0,0 -0.540892,0.1296 -0.815472,0.11995 -0.207181,-0.007 -0.418439,-0.0483 -0.607437,-0.13346 -0.31496,-0.14196 -0.837069,-0.61114 -0.837069,-0.61114 0,0 -0.195944,-0.50706 -0.135315,-0.75491 0.04284,-0.17513 0.158895,-0.25339 0.216145,-0.42436 0.07509,-0.22425 -0.09557,-0.3854 0.07238,-0.5519 0.07508,-0.0744 0.185271,-0.0829 0.273737,-0.14078 0.158322,-0.1036 -0.03231,-0.29153 0.08932,-0.43646 0.128081,-0.15262 0.391408,-0.26273 0.585698,-0.30687 z"
         id="path2980"
         sodipodi:nodetypes="ssssscsscsssssss" />
      <path
         style="fill:#000000;stroke:none;stroke-width:0.126269"
         d="m 624.91966,315.71268 c -0.98697,-0.21409 -1.54285,-0.58709 -2.66387,-1.78747 -1.18479,-1.26865 -1.51568,-1.96469 -1.51568,-3.18825 0,-1.28622 0.10536,-1.58681 1.05544,-3.01127 0.51183,-0.76739 0.84719,-1.41328 0.89813,-1.72976 0.0447,-0.27779 0.10516,-0.62357 0.13434,-0.7684 0.0397,-0.19695 0.57764,-0.52364 2.13402,-1.29591 l 2.08097,-1.03259 0.79446,0.26719 c 2.34916,0.79007 3.90927,1.89125 4.70024,3.31758 0.36214,0.65305 0.4645,1.02846 0.65129,2.38874 0.21243,1.54701 0.21222,1.64387 -0.005,2.33598 -0.49491,1.57681 -1.89357,3.79404 -2.63483,4.17688 -0.95266,0.49202 -4.04207,0.67163 -5.62951,0.32728 z"
         id="path2998"
         transform="matrix(0.26458333,0,0,0.26458333,-126.15334,78.709763)" />
      <path
         style="fill:#000000;stroke:none;stroke-width:0.126269"
         d="m 685.84372,307.82483 c -0.8661,-0.15235 -1.99442,-0.74899 -3.1055,-1.64215 -1.09357,-0.87909 -1.40974,-1.47624 -1.436,-2.71213 -0.0137,-0.64678 0.0388,-0.83859 0.35905,-1.31107 0.31634,-0.46669 0.38561,-0.71371 0.44194,-1.57593 l 0.0668,-1.02248 0.59339,-0.3181 c 0.32636,-0.17496 0.63888,-0.3654 0.69448,-0.42319 0.0556,-0.0578 0.1295,-0.45555 0.16423,-0.88389 l 0.0631,-0.7788 0.65856,-0.35292 c 1.26144,-0.67601 3.27595,-0.90414 4.59026,-0.51982 1.36997,0.40061 2.88232,1.71878 3.48931,3.04132 0.54037,1.17738 0.60951,4.99186 0.10805,5.96157 -0.43306,0.83745 -2.59337,2.15487 -3.92168,2.39156 -1.21255,0.21606 -2.1012,0.26298 -2.76602,0.14603 z"
         id="path3000"
         transform="matrix(0.26458333,0,0,0.26458333,-126.15334,78.709763)" />
      <path
         style="fill:#a0a0a0;stroke:none;stroke-width:0.0223214"
         d="m 622.64513,306.07511 c 0,-0.0412 0.0596,-0.4686 0.10175,-0.73031 0.0625,-0.38738 0.17402,-0.57819 0.36813,-0.62965 0.13216,-0.035 0.80262,-0.3009 0.96364,-0.38212 0.0702,-0.0354 0.14055,-0.0643 0.15625,-0.0641 0.0157,2e-4 -0.10707,0.0714 -0.2728,0.15819 -0.70747,0.37054 -1.08721,0.63291 -1.13603,0.78488 -0.0128,0.0397 -0.0545,0.25301 -0.0928,0.47399 -0.0634,0.36567 -0.0881,0.4749 -0.0881,0.38909 z"
         id="path3004"
         transform="matrix(0.26458333,0,0,0.26458333,-126.15334,78.709763)" />
      <path
         style="fill:#000000;stroke:none;stroke-width:0.357143"
         d="m 661.66188,330.40187 c -1.67269,-1.63846 -3.65445,-3.74511 -4.40392,-4.68145 -2.36368,-2.95304 -6.96121,-10.06741 -6.68462,-10.344 0.14584,-0.14584 1.54505,-0.61021 3.10936,-1.03193 3.83104,-1.03282 10.59316,-1.12698 14.53365,-0.2024 1.51848,0.3563 2.83766,0.77205 2.93151,0.9239 0.19674,0.31834 -1.91205,8.54532 -2.94059,11.47204 -0.74077,2.10788 -2.20057,5.10743 -3.0102,6.18526 -0.46018,0.61263 -0.70186,0.45392 -3.53519,-2.32142 z"
         id="path3006"
         transform="matrix(0.26458333,0,0,0.26458333,-126.15334,78.709763)" />
      <path
         style="fill:#a0a0a0;stroke:none;stroke-width:0.357143"
         d="m 580.73321,285.36929 c -0.18998,-0.24554 -0.45188,-0.7438 -0.58198,-1.10726 -0.28404,-0.79348 3.61255,-10.38756 7.46178,-18.37219 l 2.63293,-5.46158 1.53334,0.7761 c 3.09715,1.56764 9.53236,6.09829 14.85484,10.45844 2.32301,1.90299 2.59554,2.25523 2.5,3.23118 -0.1054,1.07677 -0.24664,1.15138 -8.3215,4.39587 -9.11982,3.66435 -17.36163,6.52587 -18.79598,6.52587 -0.5159,0 -1.09344,-0.2009 -1.28343,-0.44643 z"
         id="path3008"
         transform="matrix(0.26458333,0,0,0.26458333,-126.15334,78.709763)" />
      <path
         style="fill:#000000;stroke:none;stroke-width:2.83465;stroke-miterlimit:4;stroke-dasharray:none"
         d="m 714.78599,278.77257 c -0.56465,-1.52806 -1.81016,-4.44926 -2.76781,-6.49156 l -1.74117,-3.71329 1.21819,-1.48664 c 1.79088,-2.18554 4.67409,-4.27472 8.14242,-5.90003 4.5345,-2.12494 5.00809,-2.01514 9.95228,2.30738 3.56755,3.11897 5.83465,5.58747 10.26269,11.17444 3.83409,4.83755 3.90288,4.97576 2.95067,5.9285 -0.74346,0.74387 -1.03899,0.76218 -13.87514,0.85977 l -13.1155,0.0997 z"
         id="path3010"
         transform="matrix(0.26458333,0,0,0.26458333,-126.15334,78.709763)" />
      <path
         style="fill:#000000;stroke:none;stroke-width:2.83465;stroke-miterlimit:4;stroke-dasharray:none"
         d="m 580.58665,284.60431 c -0.32985,-0.72394 -0.0797,-1.62799 1.63991,-5.92613 2.1463,-5.36473 7.4817,-17.07954 8.02712,-17.62496 0.61552,-0.61552 8.39171,4.47289 15.18276,9.93496 3.67706,2.95748 4.1935,3.9433 2.60832,4.9789 -1.18271,0.77266 -14.33341,5.95273 -19.92954,7.85026 -5.60174,1.89943 -6.95715,2.04112 -7.52857,0.78697 z"
         id="path3012"
         transform="matrix(0.26458333,0,0,0.26458333,-126.15334,78.709763)" />
    </g>
  </g>
</svg>
